<svg width="375.059" height="128" viewBox="0 0 375.059 128" xmlns="http://www.w3.org/2000/svg"><g id="svgGroup" stroke-linecap="round" fill-rule="evenodd" font-size="9pt" stroke="#ffffff" stroke-width="0.25mm" fill="#ffffff" style="stroke:#ffffff;stroke-width:0.25mm;fill:#ffffff"><path d="M 102.785 102.528 L 85.505 51.072 Q 84.097 47.616 83.585 46.592 Q 83.159 45.741 82.114 44.358 A 39.588 39.588 0 0 0 81.665 43.776 L 79.489 40.96 L 80.129 33.536 L 112.513 33.536 L 113.793 44.416 L 106.753 46.08 L 115.457 77.184 L 128.129 34.56 L 141.313 32.768 L 155.905 78.336 L 164.097 48.896 Q 164.297 48.296 164.34 47.931 A 1.581 1.581 0 0 0 164.353 47.744 Q 164.353 46.796 163.573 46.368 A 2.254 2.254 0 0 0 163.201 46.208 L 157.057 43.648 L 158.337 33.536 L 182.657 33.536 L 183.937 43.52 L 161.921 101.12 L 143.489 102.528 L 132.865 66.944 L 121.217 101.12 L 102.785 102.528 Z M 69.633 44.544 L 59.905 45.184 L 51.073 32.256 Q 45.441 30.592 38.657 30.592 Q 33.537 30.592 28.929 31.488 Q 27.441 34.371 26.358 38.605 A 61.201 61.201 0 0 0 25.601 41.984 Q 24.321 48.512 24.321 55.168 A 62.323 62.323 0 0 0 24.731 62.578 Q 25.779 71.302 29.505 76.224 A 16.836 16.836 0 0 0 38.081 82.122 Q 40.902 83.021 44.335 83.255 A 35.622 35.622 0 0 0 45.953 83.328 A 38.846 38.846 0 0 0 49.313 83.169 Q 51.05 83.018 53.042 82.721 A 93.535 93.535 0 0 0 57.281 81.984 Q 64.129 80.64 70.657 78.464 L 74.625 92.544 A 51.753 51.753 0 0 1 66.839 96.689 A 71.123 71.123 0 0 1 58.561 99.648 Q 49.153 102.4 40.449 102.4 A 50.82 50.82 0 0 1 28.196 101.009 A 33.816 33.816 0 0 1 10.497 90.496 Q 0.001 78.592 0.001 56.832 A 63.6 63.6 0 0 1 0.969 45.459 A 45.913 45.913 0 0 1 5.057 32.96 Q 10.113 22.912 19.713 17.6 A 41.604 41.604 0 0 1 32.744 13.099 A 56.213 56.213 0 0 1 42.497 12.288 Q 57.473 12.288 73.345 19.072 Q 72.193 30.592 69.633 44.544 Z M 232.321 128 L 231.681 115.84 L 239.617 113.664 L 239.617 54.912 Q 239.617 52.436 239.32 51.494 A 1.947 1.947 0 0 0 239.233 51.264 A 2.037 2.037 0 0 0 238.905 50.781 Q 238.513 50.335 237.765 49.841 A 12.934 12.934 0 0 0 237.057 49.408 L 231.297 46.336 L 231.937 36.736 L 233.217 36.48 Q 233.857 36.352 234.625 36.224 Q 240.641 35.072 247.361 33.984 A 172.375 172.375 0 0 1 251.701 33.334 Q 253.639 33.071 255.322 32.898 A 71.286 71.286 0 0 1 258.433 32.64 A 19.366 19.366 0 0 1 259.508 36.005 A 25.254 25.254 0 0 1 259.969 38.784 Q 263.937 35.584 268.481 33.92 Q 273.025 32.256 277.505 32.256 A 28.892 28.892 0 0 1 285.915 33.415 A 21.703 21.703 0 0 1 297.153 41.28 Q 304.001 50.304 304.001 66.944 A 50.343 50.343 0 0 1 302.984 77.395 Q 301.623 83.806 298.439 88.653 A 27.654 27.654 0 0 1 294.529 93.376 A 30.457 30.457 0 0 1 282.081 100.517 Q 277.377 101.962 271.715 102.369 A 63.956 63.956 0 0 1 267.137 102.528 Q 265.217 102.528 261.121 102.272 L 261.121 109.312 Q 261.121 111.835 261.429 112.816 A 2.203 2.203 0 0 0 261.505 113.024 A 2.006 2.006 0 0 0 261.881 113.582 Q 262.307 114.046 263.111 114.511 A 10.816 10.816 0 0 0 263.681 114.816 L 271.233 119.04 L 270.721 128 L 232.321 128 Z M 375.041 67.712 L 336.129 74.88 A 22.682 22.682 0 0 0 337.535 78.236 Q 338.454 79.99 339.608 81.283 A 11.382 11.382 0 0 0 341.185 82.752 A 11.507 11.507 0 0 0 345.318 84.718 Q 346.966 85.149 348.911 85.229 A 22.013 22.013 0 0 0 349.825 85.248 Q 353.537 85.248 358.657 84.16 Q 363.777 83.072 369.025 81.152 L 371.969 93.824 A 31.04 31.04 0 0 1 367.099 96.809 Q 364.633 98.041 361.693 99.058 A 57.367 57.367 0 0 1 359.681 99.712 Q 352.129 102.016 344.449 102.016 Q 329.473 102.016 321.345 92.928 A 30.272 30.272 0 0 1 314.8 80.618 Q 313.217 74.903 313.217 67.84 A 52.404 52.404 0 0 1 313.949 58.849 Q 314.922 53.267 317.185 48.704 A 29.168 29.168 0 0 1 323.922 39.744 A 27.615 27.615 0 0 1 328.449 36.48 Q 335.745 32.256 345.473 32.256 A 36.225 36.225 0 0 1 354.623 33.345 A 24.754 24.754 0 0 1 367.681 41.472 A 29.158 29.158 0 0 1 373.2 51.976 Q 375.059 58.156 375.059 66.121 A 70.562 70.562 0 0 1 375.041 67.712 Z M 190.465 100.48 L 190.081 88.704 L 199.041 86.016 L 199.041 54.912 A 27.801 27.801 0 0 0 199.019 53.775 Q 198.952 52.15 198.677 51.448 A 1.697 1.697 0 0 0 198.593 51.264 A 2.37 2.37 0 0 0 198.234 50.781 Q 197.641 50.144 196.353 49.408 L 190.721 46.336 L 191.361 36.736 Q 201.985 34.688 207.809 33.728 Q 213.633 32.768 218.497 32.64 Q 220.161 38.144 220.545 40.832 L 220.545 81.792 Q 220.545 84.269 220.871 85.225 A 2.142 2.142 0 0 0 220.929 85.376 A 2.143 2.143 0 0 0 221.281 85.919 Q 221.691 86.396 222.468 86.907 A 12.057 12.057 0 0 0 223.105 87.296 L 229.377 90.88 L 228.865 100.48 L 190.465 100.48 Z M 261.121 50.304 L 261.121 85.12 A 18.298 18.298 0 0 0 264.595 86.143 Q 266.31 86.48 268.302 86.595 A 37.286 37.286 0 0 0 270.465 86.656 Q 274.738 86.656 277.849 85.816 A 15.772 15.772 0 0 0 280.193 84.992 A 38.941 38.941 0 0 0 280.972 82.17 Q 281.337 80.641 281.649 78.888 A 74.901 74.901 0 0 0 281.921 77.248 A 61.45 61.45 0 0 0 282.49 72.318 A 49.236 49.236 0 0 0 282.625 68.736 A 46.133 46.133 0 0 0 282.294 63.013 Q 281.935 60.152 281.188 57.804 A 18.572 18.572 0 0 0 279.233 53.504 Q 275.875 48.182 269.945 48.129 A 13.373 13.373 0 0 0 269.825 48.128 A 15.754 15.754 0 0 0 266.664 48.473 Q 264.124 48.995 261.121 50.304 Z M 200.833 25.344 L 195.457 5.76 L 217.217 0 L 222.465 19.456 L 200.833 25.344 Z M 334.849 62.208 L 354.049 56.96 A 15.899 15.899 0 0 0 353.699 54.303 Q 353.378 52.878 352.784 51.773 A 6.991 6.991 0 0 0 351.297 49.856 A 8.243 8.243 0 0 0 348.029 48.092 Q 346.797 47.735 345.327 47.646 A 16.606 16.606 0 0 0 344.321 47.616 A 24.117 24.117 0 0 0 338.224 48.372 A 22.32 22.32 0 0 0 337.281 48.64 A 30.859 30.859 0 0 0 334.827 60.741 Q 334.827 60.844 334.827 60.947 A 35.963 35.963 0 0 0 334.849 62.208 Z" vector-effect="non-scaling-stroke"/></g></svg>